/* XPM */
static const char *closeIcon[] = {
/* columns rows colors chars-per-pixel */
"20 20 69 1 ",
"  c #E52231",
". c #E62231",
"X c #E62132",
"o c #E62334",
"O c #E62434",
"+ c #E72636",
"@ c #E82837",
"# c #E82B39",
"$ c #E92D3B",
"% c #E92E3C",
"& c #EA2F3C",
"* c #EA2F3D",
"= c #E4313F",
"- c #EA313E",
"; c #EA313F",
": c #E53240",
"> c #E53542",
", c #E63643",
"< c #EB3341",
"1 c #EC3542",
"2 c #EC3643",
"3 c #E63844",
"4 c #EC3845",
"5 c #EC3A46",
"6 c #ED3A47",
"7 c #E83F4B",
"8 c #E93F4B",
"9 c #EE3C49",
"0 c #ED3E4B",
"q c #EE3E4B",
"w c #E3414E",
"e c #E8404C",
"r c #EA414D",
"t c #E9424E",
"y c #EF404D",
"u c #EF424D",
"i c #EF424F",
"p c #F0424E",
"a c #EA4350",
"s c #EA4451",
"d c #E54F59",
"f c #F04350",
"g c #F14551",
"h c #F14753",
"j c #F24854",
"k c #F24A56",
"l c #F24C57",
"z c #F34C57",
"x c #F34D59",
"c c #F34E58",
"v c #F34E59",
"b c #F44E59",
"n c #E95963",
"m c #EA959B",
"M c #EB9AA0",
"N c #EC9CA2",
"B c #EDA0A6",
"V c #F0B6BA",
"C c #F0B8BC",
"Z c #F1B8BC",
"A c #F0B9BD",
"S c #F1B9BD",
"D c #F0BABE",
"F c #F1BBBF",
"G c #F1BCC0",
"H c #F2BDC1",
"J c #F1BEC2",
"K c white",
"L c None",
/* pixels */
"LLLLLLLLLLLLLLLLLLLL",
"LLLLLLLLLLLLLLLLLLLL",
"LLLLLLclkjhgiuLLLLLL",
"LLLLLbzkjhgfpy0LLLLL",
"LLLLxzkjhgfpyq95LLLL",
"LLLbzkjhgfpyq9641LLL",
"LLvzkjnBspyeNd42<-LL",
"LLlkjhBKHteFKM2<;&LL",
"LLkjhgaSKJSKF3<;*$LL",
"LLjhgfprAKKG3<;*$#LL",
"LLhgfpy8SKKG,;*$#@LL",
"LLgfpy7ZKGVKA:$#@+LL",
"LLipyqNKD3>CKm#@+oLL",
"LLuyq9dM3<;=mw@+O.LL",
"LLL09642<;*$#@+O LLL",
"LLLL542<;*$#@+OXLLLL",
"LLLLL1<;*$#@+O LLLLL",
"LLLLLL-%$#@+o.LLLLLL",
"LLLLLLLLLLLLLLLLLLLL",
"LLLLLLLLLLLLLLLLLLLL"
};
