/* XPM */
static const char *helpIcon[] = {
/* columns rows colors chars-per-pixel */
"27 27 174 2 ",
"   c None",
".  c #0A85D9",
"X  c #0B87DA",
"o  c #0C88D9",
"O  c #0C88DA",
"+  c #0D89DA",
"@  c #0D89DB",
"#  c #0E8ADB",
"$  c #0E8BDB",
"%  c #0E8ADC",
"&  c #0F8CDC",
"*  c #108DDC",
"=  c #108EDC",
"-  c #108EDD",
";  c #118EDD",
":  c #118FDD",
">  c #118FDE",
",  c #1290DD",
"<  c #1291DD",
"1  c #1290DE",
"2  c #1291DE",
"3  c #1391DE",
"4  c #1392DE",
"5  c #1492DE",
"6  c #1493DE",
"7  c #1493DF",
"8  c #1594DE",
"9  c #1494DF",
"0  c #1594DF",
"q  c #1595DF",
"w  c #1695DF",
"e  c #1B93D9",
"r  c #1996DD",
"t  c #1B98DA",
"y  c #1998DC",
"u  c #1C9ADD",
"i  c #259ADA",
"p  c #219FDD",
"a  c #259FDC",
"s  c #289BD9",
"d  c #2A9BD9",
"f  c #289CDA",
"g  c #289FDB",
"h  c #2EA0DB",
"j  c #2FA5DF",
"k  c #2DA6DE",
"l  c #1595E0",
"z  c #1695E0",
"x  c #1696E0",
"c  c #1796E0",
"v  c #1797E0",
"b  c #1798E1",
"n  c #1898E1",
"m  c #1899E1",
"M  c #1999E1",
"N  c #199AE1",
"B  c #199AE2",
"V  c #199BE2",
"C  c #1A9BE2",
"Z  c #1A9CE2",
"A  c #1B9CE2",
"S  c #1A9DE2",
"D  c #1B9DE3",
"F  c #1D9CE0",
"G  c #1C9DE2",
"H  c #1C9DE3",
"J  c #1C9EE3",
"K  c #1D9EE3",
"L  c #1C9FE3",
"P  c #1D9FE3",
"I  c #1D9EE4",
"U  c #1D9FE4",
"Y  c #1DA0E4",
"T  c #1DA1E4",
"R  c #1EA0E4",
"E  c #1EA1E4",
"W  c #1EA1E5",
"Q  c #1FA2E5",
"!  c #1FA3E5",
"~  c #21A2E1",
"^  c #20A3E5",
"/  c #21A4E4",
"(  c #20A4E5",
")  c #21A5E5",
"_  c #20A4E6",
"`  c #21A4E6",
"'  c #21A5E6",
"]  c #21A6E6",
"[  c #22A6E6",
"{  c #22A6E7",
"}  c #22A7E7",
"|  c #23A7E7",
" . c #24A6E4",
".. c #22A8E6",
"X. c #23A8E7",
"o. c #24A8E6",
"O. c #24A8E7",
"+. c #24A9E7",
"@. c #24A9E8",
"#. c #25A9E8",
"$. c #24AAE8",
"%. c #25AAE8",
"&. c #25ABE8",
"*. c #26ABE9",
"=. c #25ACE9",
"-. c #27ACE8",
";. c #26ACE9",
":. c #27ADE9",
">. c #27AEE9",
",. c #27AEEA",
"<. c #28ADE9",
"1. c #28AEE8",
"2. c #29AFE8",
"3. c #28AEEA",
"4. c #28AFEA",
"5. c #29AFEA",
"6. c #31ADE1",
"7. c #3BABE0",
"8. c #29B0E9",
"9. c #29B0EA",
"0. c #29B1EA",
"q. c #29B1EB",
"w. c #2AB1EB",
"e. c #2AB2EB",
"r. c #2BB2EB",
"t. c #2BB3EB",
"y. c #2BB3EC",
"u. c #2BB4EC",
"i. c #2CB4EC",
"p. c #2CB5EC",
"a. c #2DB5EC",
"s. c #2DB5ED",
"d. c #2DB6ED",
"f. c #2EB7ED",
"g. c #2EB8ED",
"h. c #2FB8ED",
"j. c #2FB8EE",
"k. c #2FB9EE",
"l. c #30B9ED",
"z. c #30B9EE",
"x. c #30BAEE",
"c. c #31BBEF",
"v. c #31BCEE",
"b. c #32BDEF",
"n. c #33BDEF",
"m. c #47A9DB",
"M. c #49AADC",
"N. c #5DAFDE",
"B. c #6AB4DF",
"V. c #67BBE1",
"C. c #73BDE3",
"Z. c #74BFE4",
"A. c #7CC1E3",
"S. c #7EC7E7",
"D. c #82C0E3",
"F. c #86C3E4",
"G. c #85C7E6",
"H. c #88C7E6",
"J. c #84C8E7",
"K. c #87CAE8",
"L. c #93CDE8",
"P. c #9ECEE9",
"I. c #ADD9ED",
"U. c #AFDBEE",
"Y. c #B3DCEF",
"T. c #E4F2F9",
"R. c #EBF5FA",
"E. c #EBF5FB",
"W. c #F0F8FC",
"Q. c #F3F9FC",
"!. c #F7FBFD",
"~. c #FBFDFE",
"^. c #FEFFFF",
"/. c white",
/* pixels */
"                                                      ",
"                                                      ",
"                                                      ",
"                                                      ",
"                                                      ",
"    v.v.l.l.k.k.f.f.f.y.e.e.3.3.-.-.&.&.X.| | | R     ",
"    v.l.l.k.f.f.f.y.e.e.3.3.-.-.&.&.+.| | | | R R     ",
"    l.k.f.f.f.f.e.e.6.S.U.Y.L.7.+.X.| | | R R R U     ",
"    k.f.f.f.y.e.e.3.K././././.R.k | | ^ R R R G A     ",
"    f.f.u.e.e.e.3.-.J.U.V.G././.Z.| R R R G G A B     ",
"    f.e.e.e.3.-.-.&.k  .X.p Q./.C.R R U G A A B B     ",
"    e.e.e.3.-.-.&.&.X.| ~ H./.R.h R G G A B B B x     ",
"    e.3.-.-.&.&.+.X.| | A./.Q.M.G G A B B B B x x     ",
"    3.-.-.&.&.X.| | | a !.~.m.G A A B B B x x 0 7     ",
"    -.&.&.+.| | | | R f /.T.t A B B B x x 0 0 7 3     ",
"    &.+.X.| | | R R R G f s y B B B x x 0 7 3 3 :     ",
"    X.| | | ^ R R R G u F.P.i B x x 0 0 7 3 3 : :     ",
"    | | | R R R G G A s /./.N.x x 0 7 3 3 : : : %     ",
"    | ^ R R U G A A B r B.D.e 0 7 3 3 3 : : & $ $     ",
"    R R R G G A B B B x x 0 0 7 3 3 : : & $ $ $ $     ",
"    U U G A B B B b x x 0 7 3 3 : : : & $ $ $ X X     ",
"                x x 0 7 3 3                           ",
"                0 0 7 3 :                             ",
"                7 3 3 :                               ",
"                3 3 :                                 ",
"                : :                                   ",
"                                                      "
};
